<?xml version="1.0" encoding="UTF-8" standalone="no"?>
<!DOCTYPE svg PUBLIC "-//W3C//DTD SVG 1.1//EN" "http://www.w3.org/Graphics/SVG/1.1/DTD/svg11.dtd">
<svg width="100%" height="100%" viewBox="0 0 963 963" version="1.1"
    xmlns="http://www.w3.org/2000/svg" xmlns:xlink="http://www.w3.org/1999/xlink"
    xml:space="preserve" xmlns:serif="http://www.serif.com/"
    style="fill-rule:evenodd;clip-rule:evenodd;stroke-linejoin:round;stroke-miterlimit:2;">
    <g transform="matrix(1,0,0,1,-489.568,-446.343)">
        <g transform="matrix(0.665831,0,0,0.665831,671.52,684.319)">
            <g transform="matrix(1.06199,-1.06199,1.06199,1.06199,-2364.13,156.079)">
                <path d="M1376.43,1386.13L1603.76,1158.8C1616.83,1216.61 1617.37,1300.77 1617.37,1423.3C1617.37,1809.23 1612.09,1814.5 1226.16,1814.5C1103.63,1814.5 1019.47,1813.97 961.669,1800.89L1188.15,1574.41L1219.63,1590.03C1249.24,1604.72 1269.18,1631.59 1275.83,1665.77L1276.24,1667.86C1283.94,1707.45 1306.74,1738.78 1340.64,1756.34L1388.2,1780.99C1393.81,1783.9 1402.16,1781.29 1407.55,1774.95C1456.9,1716.9 1511.06,1662.7 1569.08,1613.31C1569.52,1612.92 1569.96,1612.53 1570.37,1612.11C1576.81,1605.68 1578.17,1596.46 1573.4,1591.69C1572.73,1591.02 1571.96,1590.46 1571.11,1590.01L1523.61,1565.4C1494.93,1550.53 1475.64,1524.03 1469.12,1490.53L1468.72,1488.44C1460.85,1448.04 1437.28,1416.28 1402.29,1398.94L1376.43,1386.13ZM843.926,1183.69C857.993,1091.21 894.077,1055.13 986.554,1041.06L843.926,1183.69ZM1060.01,1034.42C1080.91,1033.42 1103.76,1032.85 1128.72,1032.52L835.388,1325.85C835.715,1300.89 836.286,1278.05 837.282,1257.14L1060.01,1034.42ZM1195.94,1032.11C1205.75,1032.1 1215.82,1032.09 1226.16,1032.09C1238.76,1032.09 1250.95,1032.1 1262.75,1032.12L834.988,1459.88C834.963,1448.08 834.958,1435.89 834.958,1423.3C834.958,1412.95 834.962,1402.88 834.976,1393.08L1195.94,1032.11ZM1329.08,1032.6C1352.58,1032.94 1374.17,1033.53 1394,1034.5L837.364,1591.13C836.392,1571.3 835.811,1549.72 835.464,1526.22L1329.08,1032.6ZM1455.67,1039.64C1476.72,1042.37 1495.03,1046.1 1510.95,1051.16L854.03,1708.09C848.962,1692.16 845.239,1673.85 842.505,1652.8L1455.67,1039.64ZM1555.54,1073.4C1568.15,1083.03 1578.18,1094.92 1586.18,1109.57L912.435,1783.31C897.782,1775.32 885.898,1765.28 876.261,1752.67L1555.54,1073.4Z" style="fill:rgb(0,0,0);"/>
            </g>
        </g>
    </g>
</svg>